<svg version="1.1" id="Layer_1" xmlns="http://www.w3.org/2000/svg" xmlns:xlink="http://www.w3.org/1999/xlink" x="0px" y="0px"
	 width="100%" viewBox="0 0 600 388" enable-background="new 0 0 600 388" xml:space="preserve">
<path fill="#FEFFFF" opacity="1.000000" stroke="none" 
	d="
M425.000000,389.000000 
	C284.833374,389.000000 145.166718,388.982513 5.500175,389.094116 
	C1.750910,389.097107 0.902311,388.249817 0.905684,384.500000 
	C1.019337,258.166809 1.019316,131.833481 0.905738,5.500278 
	C0.902368,1.751180 1.750071,0.904330 5.499856,0.906349 
	C202.499771,1.012439 399.499725,1.012422 596.499634,0.906450 
	C600.248108,0.904434 601.097717,1.749359 601.094360,5.499747 
	C600.980652,131.832947 600.980713,258.166290 601.094238,384.499481 
	C601.097656,388.248016 600.251953,389.105652 596.500183,389.096527 
	C539.500427,388.957642 482.500153,389.000000 425.000000,389.000000 
z"/>
<path fill="#213041" opacity="1.000000" stroke="none" 
	d="
M253.787643,238.208038 
	C254.648148,237.588531 255.250473,237.159805 255.971710,236.473785 
	C258.833374,232.661026 262.134674,229.618164 265.334106,226.513382 
	C282.797943,209.566238 297.289825,190.397842 309.092285,169.125610 
	C312.252197,163.430313 313.634979,156.947037 317.577667,151.265747 
	C318.223328,149.897537 318.642059,148.807587 319.048401,147.364258 
	C318.908661,146.115204 318.939209,145.250153 319.742645,144.245255 
	C321.831451,139.456146 322.327484,134.625137 322.897034,129.407410 
	C322.774841,128.825104 322.701233,128.655243 322.764832,128.243958 
	C322.956482,125.623970 323.010864,123.245399 322.965607,120.430855 
	C322.786591,119.834885 322.707184,119.674889 322.716431,119.262054 
	C321.565796,102.119713 311.518768,92.673996 292.718628,90.723427 
	C314.836884,78.154991 346.012543,95.838692 348.064026,122.581970 
	C346.901367,126.080856 347.710022,129.248123 347.781860,132.686371 
	C347.706818,147.215530 342.738495,160.180206 337.204041,172.970535 
	C335.498810,176.911285 333.431091,180.695160 331.265686,184.774200 
	C329.850983,187.807632 331.753540,187.956360 333.664093,187.981628 
	C338.591248,188.046768 343.520721,188.070694 348.446289,187.983246 
	C351.467468,187.929611 353.189423,188.979095 353.047607,192.627365 
	C350.199249,208.703400 347.323212,224.374420 344.449097,240.045792 
	C344.302795,240.843460 344.173492,241.644226 343.903473,243.216980 
	C369.079376,224.499619 393.679993,206.209946 418.633057,187.939362 
	C420.164368,188.879730 421.548187,188.499222 422.840912,188.497864 
	C438.979279,188.480728 455.117828,188.603745 471.642883,188.172272 
	C472.776947,187.814178 473.524170,187.732651 474.630676,187.777222 
	C475.395935,188.356323 475.798431,188.811569 476.008789,189.716248 
	C454.617828,204.059891 433.199860,218.110535 411.766876,232.138214 
	C401.610138,238.785660 391.424622,245.389145 380.807922,252.301804 
	C407.376404,276.420105 433.661987,300.281586 460.893982,325.002197 
	C457.636993,325.002197 455.565247,325.001831 453.493530,325.002258 
	C435.994995,325.005768 418.495575,324.920380 400.998688,325.091858 
	C397.690430,325.124298 395.525482,324.049805 393.292755,321.690674 
	C376.685425,304.143158 359.932953,286.733032 343.233734,269.272430 
	C342.447876,268.450745 341.734772,267.559479 340.162872,265.752197 
	C338.664062,274.517395 337.342285,282.095184 336.077240,289.682404 
	C334.324738,300.193085 332.489349,310.692657 330.961700,321.236450 
	C330.490784,324.486694 329.041046,325.125946 326.065704,325.084290 
	C314.735504,324.925659 303.395782,324.809265 292.072632,325.132629 
	C288.002075,325.248901 287.436737,324.092102 288.116028,320.432465 
	C291.671265,301.280090 295.023773,282.090057 298.434357,262.910889 
	C298.750153,261.134949 298.979065,259.343567 299.334625,256.987274 
	C292.453796,259.959686 285.691498,262.695404 278.906799,259.922150 
	C274.146667,257.976440 271.647919,259.625580 268.337372,262.519989 
	C244.585464,283.286163 218.851547,300.827850 188.380646,310.408173 
	C182.974304,312.108002 177.470490,313.391815 171.414536,314.026794 
	C163.922226,313.888062 156.818970,314.485931 149.380417,313.098022 
	C134.503220,310.374146 124.419548,299.588470 122.361542,283.300323 
	C119.624733,261.639801 127.063034,242.184189 137.187805,223.459183 
	C136.379944,227.271515 135.569260,231.083237 134.764908,234.896301 
	C133.621460,240.316803 133.416336,245.799866 133.841858,251.300095 
	C135.160492,268.343994 146.123734,279.004669 163.253647,280.014648 
	C178.157822,280.893402 191.839722,276.389496 205.165970,270.444702 
	C214.760025,266.164825 223.782349,260.838379 232.696594,254.645569 
	C232.920807,253.225906 233.816284,253.054504 234.939514,252.771698 
	C238.431152,250.485092 241.602448,248.211136 244.966827,245.675964 
	C245.965683,243.342545 247.645233,242.228958 249.903900,241.298248 
	C250.232483,241.206253 250.053986,241.070465 250.126205,241.156250 
	C250.810852,239.710953 252.144089,239.024323 253.787643,238.208038 
z"/>
<path fill="#3954A1" opacity="1.000000" stroke="none" 
	d="
M248.026978,168.713287 
	C250.605560,171.171555 252.893021,173.486588 255.469086,175.951050 
	C256.548920,176.466675 257.062500,177.143723 257.739319,178.061035 
	C260.367920,181.138260 262.880981,183.921860 265.693909,186.854034 
	C266.202820,187.245483 266.427399,187.472946 266.820435,187.869934 
	C266.973297,188.054855 266.998779,188.001221 266.971863,188.013779 
	C267.206787,188.224213 267.447632,188.445023 267.812958,188.886230 
	C267.958466,189.083725 267.992676,189.009567 267.958252,189.031540 
	C269.068207,189.679520 270.209229,190.309036 270.770142,191.967682 
	C272.149506,193.711548 273.415833,195.151962 274.956024,196.759598 
	C280.393677,200.728500 280.562378,200.994720 276.322083,206.099686 
	C269.795349,213.957428 262.528198,221.106537 254.336655,227.802002 
	C254.073151,228.037262 254.005829,228.012741 254.017441,228.046631 
	C253.848633,228.220078 253.668213,228.359619 253.262802,228.756851 
	C253.037796,229.014557 253.000824,228.996231 253.006912,229.015915 
	C252.802933,229.158432 252.592880,229.281250 252.038330,229.525726 
	C250.389450,230.333481 249.111023,231.157440 247.228622,230.232986 
	C246.587372,229.965134 246.328812,229.789246 246.057526,229.284973 
	C245.536179,228.562637 245.553787,227.841797 244.834351,227.464691 
	C244.537979,227.592957 244.471466,227.473557 244.421051,227.427429 
	C244.647400,227.120453 244.727554,226.874939 244.611237,226.644653 
	C244.498825,226.422119 244.391129,226.310822 243.953369,226.406708 
	C243.618683,226.502579 243.598312,226.412140 243.553528,226.400177 
	C243.733185,225.945953 243.662903,225.572067 242.934586,225.390259 
	C242.618134,225.503082 242.618652,225.415146 242.574890,225.410782 
	C242.713913,224.371704 241.570099,224.182007 240.978516,223.366333 
	C240.674210,223.285965 240.881241,223.033249 240.794891,223.171906 
	C240.752884,222.896957 240.621399,222.556992 239.991058,222.298172 
	C239.695740,222.294113 239.924332,222.050873 239.825439,222.185303 
	C239.568222,221.406128 238.596619,221.135696 237.917114,220.287308 
	C237.334915,220.114182 237.118256,219.956573 236.909531,219.503571 
	C236.271149,217.989746 235.136032,217.225555 233.806732,216.176758 
	C233.449631,215.810486 233.304596,215.711121 233.047668,215.372986 
	C232.560745,214.597443 232.560486,213.882614 231.817825,213.537994 
	C231.531281,213.691620 231.350769,213.545532 231.291428,213.445709 
	C231.562012,213.109436 231.673096,212.871536 231.565887,212.631943 
	C231.458420,212.391769 231.349945,212.271561 230.928757,212.461731 
	C230.617599,212.651917 230.494186,212.529343 230.441589,212.460068 
	C230.720154,211.963821 230.688416,211.586395 229.926453,211.443420 
	C229.617386,211.620392 229.500320,211.509659 229.443970,211.452087 
	C229.644547,211.112122 229.710358,210.852890 229.585220,210.616760 
	C229.466263,210.392288 229.355637,210.280029 228.931091,210.428223 
	C228.608994,210.576431 228.541641,210.469894 228.492584,210.430359 
	C228.749268,209.981979 228.718613,209.620193 227.960327,209.371765 
	C227.627731,209.429886 227.747314,209.283981 227.663788,209.327820 
	C227.746750,208.938324 227.659149,208.576752 226.962219,208.349823 
	C226.647324,208.401306 226.837143,208.197906 226.723114,208.277588 
	C226.742645,207.923325 226.641815,207.564087 225.959793,207.348328 
	C225.650177,207.405273 225.657639,207.318848 225.616394,207.332275 
	C224.201126,205.086304 222.262512,203.324951 220.134018,201.304535 
	C219.859375,201.120239 219.988113,201.012344 219.933792,201.076401 
	C219.488297,200.453751 218.906265,199.937256 218.100739,199.238510 
	C217.549454,198.981247 217.302704,198.801010 217.042374,198.308075 
	C216.532806,197.566437 216.561050,196.822021 215.814163,196.487228 
	C215.529770,196.658600 215.405212,196.520935 215.351105,196.445496 
	C215.615356,196.120392 215.716919,195.877365 215.601868,195.640900 
	C215.488495,195.407822 215.376251,195.291245 214.942505,195.459320 
	C214.620041,195.627396 214.540665,195.522522 214.484344,195.488586 
	C214.887970,194.474823 214.013214,194.588547 213.293594,194.176880 
	C213.045975,193.981476 212.808624,193.835800 212.771912,193.701477 
	C212.796173,193.090302 212.669312,192.676483 211.978607,192.363342 
	C211.634995,192.390106 211.607819,192.325012 211.575165,192.338348 
	C211.487183,190.852585 209.794281,190.622238 209.010742,189.338898 
	C208.718628,189.216766 208.851471,189.146835 208.813766,189.211731 
	C208.559952,188.442047 207.644287,188.170609 207.023056,187.317719 
	C206.747986,187.194717 206.952515,187.076859 206.863983,187.154907 
	C205.308899,185.028000 203.391129,183.228806 201.242920,181.208313 
	C200.966324,181.028519 201.000336,181.000000 200.985657,181.016861 
	C200.554932,180.533478 200.550018,179.830078 199.833954,179.450241 
	C199.537933,179.568680 199.540314,179.466125 199.489136,179.469391 
	C199.032242,177.434982 198.074890,178.523422 197.487457,179.240082 
	C196.786942,180.094666 196.967072,181.313538 196.727234,182.667358 
	C196.780884,183.436890 196.765686,183.886444 196.605164,184.641953 
	C193.009537,199.992447 190.845581,215.275360 188.035416,230.438522 
	C186.645248,237.939651 185.408920,245.468628 184.103027,252.984573 
	C183.481476,256.561890 181.757431,258.100372 178.049316,258.040070 
	C169.053757,257.893799 160.053497,258.047943 151.055984,257.969513 
	C146.312927,257.928192 145.903870,257.221191 146.631973,252.684357 
	C148.710892,239.730270 151.165283,226.840424 153.161591,213.441223 
	C153.130447,212.538254 153.144073,212.074539 153.283203,211.284897 
	C156.258087,201.430969 157.097763,191.516037 158.936371,181.794937 
	C161.455765,168.474503 163.475235,155.059708 166.156570,141.764725 
	C166.693604,139.101852 168.505905,137.008316 169.404083,134.059967 
	C169.541092,133.664093 169.756989,133.805038 169.669922,133.709961 
	C171.425110,132.868317 171.638901,130.919647 172.787964,129.244537 
	C172.973557,128.964722 173.001999,128.998108 172.981995,128.989487 
	C173.228638,128.776611 173.467499,128.543854 173.808334,128.067657 
	C174.004471,127.538750 174.170593,127.291916 174.648163,127.028389 
	C175.157547,126.775490 175.424438,126.566963 175.811249,126.112656 
	C176.067673,125.584129 176.269424,125.341972 176.794128,125.098305 
	C178.188736,124.467644 179.757492,124.693428 180.442963,122.903717 
	C180.429245,122.568649 180.546173,122.505630 180.595886,122.461594 
	C187.752365,118.887207 194.989044,118.614487 202.731323,121.727722 
	C203.108917,121.903717 203.017563,121.993080 203.049896,121.937973 
	C203.515457,122.562485 204.121658,123.060852 205.075043,123.473007 
	C205.369431,123.442070 205.383209,123.535805 205.430267,123.541290 
	C205.188019,124.506622 205.986679,124.435471 206.769730,124.802856 
	C207.035095,124.975136 207.001663,125.001747 207.012527,124.983673 
	C207.458054,125.478500 207.440094,126.229179 208.207291,126.512100 
	C208.475662,126.315842 208.621368,126.461678 208.676208,126.548950 
	C208.388275,126.867668 208.271866,127.101593 208.381607,127.338104 
	C208.491882,127.575821 208.604004,127.694725 209.052124,127.542770 
	C209.386063,127.390816 209.484482,127.502403 209.537262,127.554825 
	C209.277222,128.038620 209.314270,128.416519 210.073135,128.565552 
	C210.384384,128.399429 210.475479,128.508163 210.528107,128.555725 
	C210.274902,129.038040 210.315186,129.417435 211.076141,129.572998 
	C211.390976,129.414093 211.465836,129.521072 211.516754,129.561951 
	C211.263992,130.027893 211.300812,130.400848 212.064117,130.597168 
	C212.390747,130.481705 212.416046,130.576462 212.461029,130.595978 
	C212.241928,131.024826 212.286880,131.380310 213.015549,131.658981 
	C213.340805,131.644623 212.972458,131.885605 213.160080,131.772614 
	C213.252899,132.087372 213.367416,132.439697 214.029633,132.674347 
	C214.335052,132.643951 213.989288,132.903854 214.168610,132.783463 
	C214.246414,133.081467 214.353561,133.427261 215.005524,133.689148 
	C215.306503,133.690033 215.016907,134.003052 215.159515,133.845978 
	C215.247818,134.100876 215.374039,134.439758 216.003052,134.707672 
	C216.297028,134.721268 216.117142,135.013062 216.213364,134.868439 
	C217.551529,137.137009 219.795090,138.639679 221.860107,140.744141 
	C222.436188,141.030457 222.685425,141.207260 222.954697,141.693375 
	C223.470398,142.437927 223.436783,143.194611 224.196976,143.502991 
	C224.472275,143.310684 224.567398,143.437241 224.629181,143.486710 
	C223.985245,144.566513 225.032822,144.374115 225.708771,144.820969 
	C225.969040,145.019547 226.001892,145.001389 225.990601,145.016724 
	C226.448669,145.469818 226.454544,146.154327 227.134247,146.571777 
	C227.433487,146.504135 227.434418,146.597244 227.479996,146.606750 
	C227.250961,147.027710 227.293320,147.386200 228.029282,147.630066 
	C228.354752,147.576935 228.141724,147.678238 228.257553,147.656006 
	C228.267960,148.105377 228.407669,148.474426 229.164032,148.743347 
	C229.498077,148.761444 229.807663,148.924210 229.881317,149.082809 
	C230.476410,149.551956 230.463989,150.181839 231.045227,150.676636 
	C231.312851,150.736572 231.139954,150.884323 231.202118,150.789108 
	C231.414948,151.569092 232.366684,151.826538 232.979889,152.681046 
	C233.257278,152.803162 233.132538,152.865829 233.165863,152.804504 
	C233.450760,153.544418 234.342590,153.822433 234.926544,154.720917 
	C235.173828,154.887665 235.052521,154.943161 235.093597,154.890625 
	C235.497421,155.535065 236.076309,156.047852 236.850403,156.766876 
	C237.076004,156.947174 237.003082,156.995361 237.029770,156.960739 
	C237.455170,157.477905 237.432480,158.246002 238.228546,158.488525 
	C238.478668,158.254822 238.678970,158.421494 238.733917,158.539612 
	C238.188217,158.959091 238.157639,159.303040 239.053040,159.532928 
	C239.394379,159.375198 239.455368,159.480621 239.510620,159.506195 
	C239.093552,160.521042 239.977951,160.409576 240.702942,160.829346 
	C240.950439,161.030457 241.001801,161.003296 240.985077,161.027100 
	C241.449234,161.469894 241.456207,162.143341 242.115326,162.595139 
	C242.415649,162.562393 242.310425,162.694778 242.387726,162.660522 
	C242.254257,163.049866 242.322067,163.408676 243.030548,163.644226 
	C243.348053,163.596146 243.232452,163.743652 243.314072,163.697632 
	C243.254715,164.074783 243.348450,164.426422 244.021896,164.677277 
	C244.329926,164.659332 243.982147,164.871521 244.157700,164.772064 
	C244.252228,165.093384 244.369980,165.439789 245.018921,165.689377 
	C245.320038,165.678665 245.083038,166.010162 245.191406,165.837891 
	C245.712418,166.968735 247.230347,167.344818 248.026978,168.713287 
z"/>
<path fill="#3D569F" opacity="1.000000" stroke="none" 
	d="
M318.365051,78.672729 
	C317.198273,78.770836 316.380890,78.724304 315.180481,78.529251 
	C297.872681,76.765793 281.689117,79.917336 265.986877,86.046669 
	C264.452209,86.645714 262.817322,86.985641 261.013062,87.948761 
	C259.961761,88.410614 259.189911,88.445862 258.366608,89.038261 
	C258.261322,89.396660 258.132324,89.352058 258.198486,89.335258 
	C253.026184,90.940842 248.437851,93.962006 243.479202,96.185707 
	C241.862122,96.910881 240.384995,98.238747 238.064209,97.242554 
	C237.600632,96.784744 237.458969,96.560272 237.313141,95.937653 
	C237.308975,95.539513 237.448013,95.482819 237.516052,95.451073 
	C237.978577,95.789124 238.339584,95.778061 238.672546,94.973526 
	C238.683365,94.622383 238.898254,94.994507 238.785950,94.808426 
	C239.732132,94.334808 240.666916,93.785622 241.648270,92.916534 
	C241.694107,92.595093 241.851944,92.833511 241.748840,92.734467 
	C242.346741,92.700035 242.621704,92.012512 243.459045,91.790810 
	C263.154388,77.225967 284.917969,68.508591 308.969421,65.536011 
	C316.760071,64.573135 324.565552,64.683235 332.337738,65.950722 
	C354.155365,69.508736 364.304596,83.492523 360.787506,105.315865 
	C360.267731,108.540962 359.318329,111.696823 358.072357,114.972679 
	C356.743958,103.859840 352.097351,94.771950 343.000793,87.813553 
	C342.663269,86.054405 340.778503,86.614265 339.970734,85.435349 
	C339.626892,85.379250 339.796997,85.376762 339.723633,85.419785 
	C339.773346,84.457329 338.964722,84.547867 338.042236,84.408234 
	C337.708374,84.436844 337.867615,84.010864 337.776123,84.219315 
	C331.980042,80.471466 325.321228,79.583374 318.365051,78.672729 
z"/>
<path fill="#3B55A0" opacity="1.000000" stroke="none" 
	d="
M280.961609,195.171997 
	C280.838776,194.496658 280.938019,194.066437 281.154358,193.326294 
	C283.845062,184.602432 284.655212,175.854935 285.910309,167.211960 
	C286.555756,162.767136 287.847260,158.499146 288.567261,153.670776 
	C288.574036,153.245865 288.485504,153.161880 288.480530,153.101074 
	C290.106567,152.177643 288.586548,150.758301 289.099182,149.374786 
	C289.153198,148.591034 289.175110,148.124908 289.343903,147.339417 
	C292.139038,138.862305 292.453339,130.234680 294.785645,121.647980 
	C296.090576,121.282669 297.145050,121.232269 298.589294,121.260300 
	C303.452454,122.730042 308.059174,122.045952 312.565918,121.877731 
	C315.848236,121.755226 317.040100,122.632645 316.749756,126.154434 
	C317.081207,126.741737 317.215851,126.975746 317.232483,127.597160 
	C317.035583,128.154083 316.956665,128.323608 316.737427,128.735992 
	C315.025635,133.392059 313.931488,137.904495 313.752136,142.968201 
	C308.521973,161.795074 298.451660,177.640167 286.762024,192.988617 
	C286.321777,193.370743 286.139954,193.513748 285.401733,194.048721 
	C284.660400,194.567520 284.475525,194.694351 284.007751,195.001099 
	C283.525146,195.280243 283.325378,195.379486 282.802124,195.561172 
	C282.030609,195.661575 281.598083,195.591156 280.961609,195.171997 
z"/>
<path fill="#F2F6F9" opacity="1.000000" stroke="none" 
	d="
M285.054749,193.224762 
	C297.211456,178.161606 306.611023,161.814240 312.933777,143.365906 
	C312.722412,141.501831 313.499084,140.284027 314.394470,138.969116 
	C317.018097,140.688477 315.395569,142.218765 314.718872,144.059525 
	C313.730316,146.748474 312.459167,149.965164 317.421692,150.978027 
	C312.341187,167.989685 303.018250,182.909378 292.534576,197.134644 
	C282.035736,211.380539 270.064484,224.326202 256.413239,236.104935 
	C256.244568,231.703339 261.563080,230.415634 262.334198,226.198334 
	C262.546082,225.039444 263.685364,224.049973 263.647430,222.260468 
	C259.787415,223.209656 258.795898,228.034500 254.436310,228.026520 
	C261.280457,220.592636 268.723328,213.384964 275.634674,205.639893 
	C278.493805,202.435883 279.141235,200.167282 275.349365,197.224609 
	C276.494843,196.950333 277.759766,196.973846 279.404572,196.993805 
	C280.925720,196.849884 281.769562,196.055359 283.111084,195.657288 
	C283.441864,195.686707 283.549744,195.540482 283.591248,195.459656 
	C283.387543,195.128784 283.317017,194.891541 283.420990,194.667023 
	C283.521973,194.448975 283.617767,194.339905 284.034180,194.336639 
	C284.359802,194.333374 284.335480,194.088821 284.323914,194.211151 
	C284.260895,193.904083 284.422272,193.570435 285.054749,193.224762 
z"/>
<path fill="#576AA6" opacity="1.000000" stroke="none" 
	d="
M152.970856,213.364151 
	C154.491318,218.832581 152.023209,224.300491 151.349030,229.917587 
	C150.385834,237.942627 148.611298,245.870911 147.161102,253.836487 
	C146.783112,255.912704 147.456451,257.040253 149.699097,257.037689 
	C159.524612,257.026367 169.350281,257.008118 179.175598,257.055603 
	C182.759125,257.072937 183.059326,254.167160 183.491959,251.908539 
	C185.170593,243.144760 186.491180,234.313187 188.066147,225.528564 
	C190.480377,212.062988 192.332291,198.487503 196.144577,185.089035 
	C192.832764,206.095963 189.302780,227.261322 185.537460,248.384720 
	C183.667221,258.876709 183.471756,258.844727 172.856781,258.845764 
	C164.696304,258.846558 156.535019,258.774261 148.375793,258.873383 
	C145.821487,258.904419 144.757523,258.350433 145.295517,255.474045 
	C147.895096,241.574936 150.330963,227.645187 152.970856,213.364151 
z"/>
<path fill="#576AA6" opacity="1.000000" stroke="none" 
	d="
M169.274872,133.861206 
	C169.068130,139.052505 166.144775,143.724548 165.318848,149.092178 
	C162.417496,167.947983 159.077393,186.736008 155.987396,205.563477 
	C155.679428,207.439911 155.032944,209.046249 153.679916,210.749863 
	C157.286224,188.360443 161.119522,165.754135 165.090408,143.172012 
	C165.665176,139.903366 167.197418,136.880371 169.274872,133.861206 
z"/>
<path fill="#53649B" opacity="1.000000" stroke="none" 
	d="
M259.737579,88.191673 
	C270.068695,82.963188 280.823486,79.633148 291.863861,78.296494 
	C299.154663,77.413788 306.750000,75.504112 314.504456,78.199364 
	C295.880981,77.167274 278.019501,81.474472 260.353027,88.747482 
	C259.819763,88.648857 259.652008,88.517616 259.737579,88.191673 
z"/>
<path fill="#182430" opacity="1.000000" stroke="none" 
	d="
M353.272766,192.696991 
	C352.169312,189.214828 349.525604,188.711685 346.077423,188.937302 
	C341.794373,189.217575 337.477539,189.065353 333.177917,188.975540 
	C330.710907,188.924026 328.363647,188.541870 330.660736,185.053131 
	C330.149536,187.485291 331.558655,187.708435 333.520691,187.683990 
	C339.001282,187.615723 344.510437,187.996063 349.956238,187.555405 
	C354.442047,187.192444 354.536652,189.128082 353.272766,192.696991 
z"/>
<path fill="#4B629F" opacity="1.000000" stroke="none" 
	d="
M288.362183,153.400330 
	C289.795563,156.273148 288.338470,159.140884 287.931458,162.034546 
	C286.670288,171.001526 284.480347,179.822968 283.768860,188.888397 
	C283.665497,190.205551 283.372955,191.887054 281.617828,192.918579 
	C281.236816,192.615448 281.202179,192.214493 281.130310,191.512024 
	C281.596680,190.419434 281.491943,189.517517 281.678986,188.338593 
	C281.982605,187.112839 282.167328,186.195618 282.279114,184.933685 
	C282.174835,183.906586 282.544769,183.298416 282.712769,182.323059 
	C282.990356,181.374863 283.124634,180.729965 283.211853,179.757568 
	C283.251556,178.813812 283.529633,178.239868 283.675293,177.320648 
	C283.953857,176.093109 284.123901,175.157547 284.234528,173.868668 
	C284.404663,172.562073 284.572815,171.600967 284.742004,170.304413 
	C285.039001,169.630676 285.138733,169.267395 285.184631,168.623688 
	C286.059052,165.522888 284.332306,162.308838 286.652374,159.325653 
	C286.987610,158.622910 287.088745,158.254654 287.159363,157.599518 
	C287.544830,156.457855 287.502930,155.526886 287.708679,154.296402 
	C287.943481,153.836609 288.046906,153.695694 288.362183,153.400330 
z"/>
<path fill="#4C5E95" opacity="1.000000" stroke="none" 
	d="
M238.400574,99.108490 
	C232.205185,103.131599 226.082474,106.865410 219.959763,110.599228 
	C219.693893,110.196594 219.428009,109.793968 219.162140,109.391335 
	C224.468903,105.243546 229.775681,101.095749 235.401672,96.832260 
	C235.908707,96.766479 236.096512,96.816406 236.525482,97.030884 
	C237.055054,97.459473 237.347153,97.719360 237.872650,98.163551 
	C238.226013,98.507683 238.349625,98.663445 238.400574,99.108490 
z"/>
<path fill="#13242D" opacity="1.000000" stroke="none" 
	d="
M471.568848,187.791840 
	C471.487701,188.237823 470.944977,188.879776 470.403717,188.878510 
	C453.455566,188.838913 436.502380,189.493713 419.272766,188.265167 
	C436.359650,187.868286 453.733826,187.778122 471.568848,187.791840 
z"/>
<path fill="#4B629F" opacity="1.000000" stroke="none" 
	d="
M294.674835,121.370674 
	C293.576996,129.848282 293.297058,138.590424 289.814941,146.899384 
	C290.823578,138.431046 291.875092,129.789078 294.674835,121.370674 
z"/>
<path fill="#36424D" opacity="1.000000" stroke="none" 
	d="
M149.258209,313.375061 
	C151.250687,310.535339 153.615768,313.184692 155.953659,313.117645 
	C160.758804,312.979828 165.576920,313.293884 170.692200,313.705750 
	C163.817093,315.726318 156.684509,314.909851 149.258209,313.375061 
z"/>
<path fill="#4B629F" opacity="1.000000" stroke="none" 
	d="
M317.114990,126.873306 
	C316.415009,123.228424 314.394958,122.549637 310.746155,122.820946 
	C306.974304,123.101395 302.953552,123.987221 299.111816,121.701927 
	C303.894165,121.259109 308.830841,121.432930 313.717468,121.017807 
	C317.468323,120.699158 317.812744,122.432953 317.268890,125.669197 
	C317.349213,126.272820 317.391632,126.501869 317.114990,126.873306 
z"/>
<path fill="#4C5E95" opacity="1.000000" stroke="none" 
	d="
M237.727676,97.485748 
	C242.348251,96.839722 245.649689,94.083801 249.273575,92.251549 
	C251.933441,90.906700 254.560867,89.723373 257.870850,89.246986 
	C251.848602,92.610489 245.432587,95.902519 238.672241,99.296165 
	C238.327896,99.397781 238.148148,99.178253 238.056183,99.070221 
	C237.658905,98.702583 237.495605,98.369537 237.727676,97.485748 
z"/>
<path fill="#576AA6" opacity="1.000000" stroke="none" 
	d="
M202.891373,121.611214 
	C201.967621,121.904968 200.594635,122.324242 199.722122,121.840599 
	C193.394821,118.333336 187.428116,120.729874 181.026932,122.552322 
	C187.778091,117.836281 195.131516,117.684212 202.891373,121.611214 
z"/>
<path fill="#53649B" opacity="1.000000" stroke="none" 
	d="
M318.393005,78.936928 
	C325.211365,77.744484 331.713379,79.441338 337.627411,84.071167 
	C331.539490,82.075333 325.334167,79.934731 318.393005,78.936928 
z"/>
<path fill="#4B629F" opacity="1.000000" stroke="none" 
	d="
M314.780182,138.599884 
	C314.274078,140.110458 313.796692,141.284134 313.136047,142.725540 
	C312.621063,138.106445 313.818237,133.550476 316.268005,129.086609 
	C316.633240,129.329224 316.669373,129.679611 316.767273,130.289124 
	C316.759125,131.172836 316.468750,131.749939 316.323914,132.676224 
	C316.057922,133.576035 315.902008,134.181732 315.768494,135.100601 
	C315.835144,135.807587 315.744659,136.164185 315.354187,136.727020 
	C315.077240,137.405457 314.943054,137.834213 314.780182,138.599884 
z"/>
<path fill="#F2F6F9" opacity="1.000000" stroke="none" 
	d="
M286.518860,159.048218 
	C286.450195,161.886642 286.013977,164.782135 285.354248,168.010437 
	C285.577301,165.275665 281.480530,161.706177 286.518860,159.048218 
z"/>
<path fill="#576AA6" opacity="1.000000" stroke="none" 
	d="
M222.014053,140.630310 
	C218.990204,140.354980 217.263046,138.251404 216.250549,135.082672 
	C218.175323,136.587357 220.041046,138.450928 222.014053,140.630310 
z"/>
<path fill="#F2F6F9" opacity="1.000000" stroke="none" 
	d="
M235.190369,252.367554 
	C234.637665,253.249329 234.015457,253.739609 233.163269,254.297668 
	C229.862106,252.914246 231.620300,250.559799 232.806107,249.722153 
	C234.206757,248.732742 234.733398,250.744598 235.190369,252.367554 
z"/>
<path fill="#576AA6" opacity="1.000000" stroke="none" 
	d="
M219.954712,201.437561 
	C223.303329,201.380859 224.196060,204.352737 225.652283,206.994751 
	C223.733459,205.482086 221.891754,203.618484 219.954712,201.437561 
z"/>
<path fill="#576AA6" opacity="1.000000" stroke="none" 
	d="
M201.074280,181.342743 
	C203.972763,181.734955 205.774200,183.731201 206.807419,186.874222 
	C204.911026,185.374283 203.046631,183.515625 201.074280,181.342743 
z"/>
<path fill="#F2F6F9" opacity="1.000000" stroke="none" 
	d="
M249.793488,241.145264 
	C248.748245,242.521240 247.263992,243.836227 245.469833,245.282990 
	C244.444351,241.923843 245.839752,240.477661 249.793488,241.145264 
z"/>
<path fill="#576AA6" opacity="1.000000" stroke="none" 
	d="
M196.939590,182.678986 
	C195.307526,181.013901 196.070251,179.164642 197.486313,177.730820 
	C198.431839,176.773422 199.177643,177.789276 199.495117,179.133606 
	C196.658447,178.817917 197.848511,181.388763 196.939590,182.678986 
z"/>
<path fill="#13212B" opacity="1.000000" stroke="none" 
	d="
M348.144165,132.562698 
	C346.132477,129.965118 347.008148,126.747208 347.695160,123.281631 
	C348.739502,126.022087 348.415100,129.074905 348.144165,132.562698 
z"/>
<path fill="#576AA6" opacity="1.000000" stroke="none" 
	d="
M180.136749,122.651688 
	C181.302170,125.267967 180.809601,126.598114 177.357056,125.157013 
	C177.962021,124.256020 178.903122,123.495377 180.136749,122.651688 
z"/>
<path fill="#576AA6" opacity="1.000000" stroke="none" 
	d="
M172.679855,129.113190 
	C173.154327,131.126144 172.332123,132.712936 169.946732,133.613739 
	C169.978302,131.816727 171.302139,130.616409 172.679855,129.113190 
z"/>
<path fill="#F2F6F9" opacity="1.000000" stroke="none" 
	d="
M253.641876,238.008179 
	C252.966003,239.025269 251.886200,240.033295 250.502411,241.141678 
	C249.636032,238.684311 250.886063,237.825348 253.641876,238.008179 
z"/>
<path fill="#576AA6" opacity="1.000000" stroke="none" 
	d="
M247.034744,230.336548 
	C248.419937,229.731506 249.923065,229.426208 251.811539,229.113922 
	C252.196899,229.106918 252.289917,229.592590 252.149658,229.796204 
	C252.009399,229.999817 251.999390,229.998779 251.999420,230.003571 
	C251.749146,230.208862 251.518860,230.430191 251.116623,230.816223 
	C250.924667,230.960114 250.990891,230.993118 250.977020,230.958832 
	C250.762894,231.205856 250.528442,231.455002 250.036957,231.801682 
	C248.550995,232.272446 247.805771,231.549042 247.034744,230.336548 
z"/>
<path fill="#576AA6" opacity="1.000000" stroke="none" 
	d="
M233.712997,216.177567 
	C235.329285,216.033127 236.681015,216.619476 236.855927,218.961746 
	C235.840424,218.353622 234.835892,217.399460 233.712997,216.177567 
z"/>
<path fill="#F2F6F9" opacity="1.000000" stroke="none" 
	d="
M319.632263,144.034286 
	C319.807037,144.846893 319.653412,145.696060 319.267883,146.778061 
	C318.303894,146.852966 317.326782,146.889435 317.401947,145.804276 
	C317.476593,144.726349 318.352356,144.304413 319.632263,144.034286 
z"/>
<path fill="#4B629F" opacity="1.000000" stroke="none" 
	d="
M283.019531,195.471741 
	C282.598541,196.818497 282.244080,198.805069 279.928314,197.302032 
	C279.927216,196.403458 280.070007,195.816681 280.476135,195.078400 
	C281.358734,195.036865 281.977966,195.146820 283.019531,195.471741 
z"/>
<path fill="#4B629F" opacity="1.000000" stroke="none" 
	d="
M289.053223,149.010498 
	C290.304138,150.289062 290.288269,151.528046 288.814484,152.906967 
	C288.476501,152.386322 288.477417,151.732376 288.365570,150.857437 
	C288.171600,150.218201 288.253326,149.839264 288.659515,149.230530 
	C288.793518,148.954742 288.975189,148.963821 289.053223,149.010498 
z"/>
<path fill="#13242D" opacity="1.000000" stroke="none" 
	d="
M476.378845,189.942780 
	C475.703583,189.522995 475.365265,189.027328 475.008453,188.217499 
	C476.184906,187.792450 477.478180,187.086060 478.398956,188.391937 
	C478.444183,188.456100 477.303955,189.356110 476.378845,189.942780 
z"/>
<path fill="#576AA6" opacity="1.000000" stroke="none" 
	d="
M208.814270,189.513214 
	C210.069870,189.603470 211.587509,189.785599 211.634308,192.007416 
	C210.664993,191.504349 209.787460,190.657013 208.814270,189.513214 
z"/>
<path fill="#F2F6F9" opacity="1.000000" stroke="none" 
	d="
M270.909607,191.876831 
	C269.968353,191.398407 269.053528,190.525665 268.031250,189.353210 
	C269.688782,188.919617 271.109741,189.212311 270.909607,191.876831 
z"/>
<path fill="#576AA6" opacity="1.000000" stroke="none" 
	d="
M248.203217,168.555206 
	C246.853394,168.581161 245.983139,167.602417 245.323669,166.005798 
	C246.229294,166.528366 247.158829,167.391144 248.203217,168.555206 
z"/>
<path fill="#4C5E95" opacity="1.000000" stroke="none" 
	d="
M241.393372,92.674820 
	C241.662231,94.099304 240.845764,94.787796 239.031738,94.716904 
	C239.479996,93.999748 240.286316,93.377144 241.393372,92.674820 
z"/>
<path fill="#576AA6" opacity="1.000000" stroke="none" 
	d="
M205.210846,123.203659 
	C204.355133,123.879570 203.528854,123.829811 203.121979,122.236526 
	C203.738907,122.243660 204.395569,122.604454 205.210846,123.203659 
z"/>
<path fill="#53649B" opacity="1.000000" stroke="none" 
	d="
M339.805786,85.650681 
	C340.918762,85.321350 341.937317,85.819511 342.733521,87.229660 
	C341.853241,87.027054 340.918945,86.474579 339.805786,85.650681 
z"/>
<path fill="#576AA6" opacity="1.000000" stroke="none" 
	d="
M236.995178,156.658081 
	C236.112610,156.898331 235.325226,156.613510 235.141769,155.173843 
	C235.727921,155.348373 236.321136,155.858673 236.995178,156.658081 
z"/>
<path fill="#576AA6" opacity="1.000000" stroke="none" 
	d="
M217.956451,199.355225 
	C218.831985,199.099777 219.657257,199.335144 219.870056,200.800629 
	C219.268875,200.641449 218.658279,200.142441 217.956451,199.355225 
z"/>
<path fill="#F2F6F9" opacity="1.000000" stroke="none" 
	d="
M257.858978,177.984253 
	C257.231018,177.800873 256.607147,177.247086 255.870483,176.396866 
	C256.826172,176.094788 257.717438,176.335663 257.858978,177.984253 
z"/>
<path fill="#576AA6" opacity="1.000000" stroke="none" 
	d="
M237.741440,220.460266 
	C238.608017,220.244019 239.272125,220.756531 239.693146,221.984833 
	C239.103973,221.795959 238.481400,221.272171 237.741440,220.460266 
z"/>
<path fill="#576AA6" opacity="1.000000" stroke="none" 
	d="
M240.755737,223.568420 
	C241.685562,223.286942 242.318100,223.791306 242.571930,225.075562 
	C241.966507,224.887894 241.401886,224.369385 240.755737,223.568420 
z"/>
<path fill="#576AA6" opacity="1.000000" stroke="none" 
	d="
M206.846832,187.480591 
	C207.701279,187.264511 208.316147,187.791214 208.735443,188.956696 
	C208.165924,188.773239 207.555801,188.269852 206.846832,187.480591 
z"/>
<path fill="#4C5E95" opacity="1.000000" stroke="none" 
	d="
M243.517517,91.774445 
	C243.220856,92.118080 242.678391,92.435234 241.890839,92.693901 
	C241.947830,91.900055 242.580154,91.769760 243.517517,91.774445 
z"/>
<path fill="#F2F6F9" opacity="1.000000" stroke="none" 
	d="
M281.562927,188.275665 
	C281.706787,188.915939 281.615662,189.801834 281.308777,190.949097 
	C281.171356,190.314087 281.249664,189.417694 281.562927,188.275665 
z"/>
<path fill="#F2F6F9" opacity="1.000000" stroke="none" 
	d="
M284.704742,169.995117 
	C284.847443,170.975723 284.755615,171.957489 284.419434,173.227295 
	C284.116455,172.636185 284.057831,171.757004 284.000214,170.438004 
	C284.001221,169.998169 284.470215,169.996262 284.704742,169.995117 
z"/>
<path fill="#F2F6F9" opacity="1.000000" stroke="none" 
	d="
M287.597900,154.237732 
	C287.755768,154.907654 287.671478,155.837784 287.358032,157.040283 
	C287.204437,156.374420 287.280090,155.436172 287.597900,154.237732 
z"/>
<path fill="#576AA6" opacity="1.000000" stroke="none" 
	d="
M235.085663,154.596909 
	C234.293610,154.695236 233.648758,154.209625 233.242767,153.057709 
	C233.798615,153.264160 234.398056,153.785156 235.085663,154.596909 
z"/>
<path fill="#576AA6" opacity="1.000000" stroke="none" 
	d="
M233.165924,152.514923 
	C232.304916,152.720871 231.685074,152.199097 231.292892,151.016235 
	C231.867722,151.204819 232.471161,151.715744 233.165924,152.514923 
z"/>
<path fill="#576AA6" opacity="1.000000" stroke="none" 
	d="
M225.902252,144.772324 
	C225.482056,144.722153 224.995071,144.424774 224.599533,143.831787 
	C225.072479,143.865814 225.453964,144.195465 225.902252,144.772324 
z"/>
<path fill="#576AA6" opacity="1.000000" stroke="none" 
	d="
M231.236084,150.484009 
	C230.885193,150.428345 230.457520,150.120102 229.992416,149.526642 
	C230.356430,149.571411 230.757874,149.901413 231.236084,150.484009 
z"/>
<path fill="#576AA6" opacity="1.000000" stroke="none" 
	d="
M213.116180,194.238525 
	C213.545853,194.269455 214.045731,194.557419 214.486816,195.150024 
	C214.014145,195.134949 213.600266,194.815247 213.116180,194.238525 
z"/>
<path fill="#53649B" opacity="1.000000" stroke="none" 
	d="
M337.881897,84.662560 
	C338.396637,84.172340 339.047974,84.113472 339.610474,85.116966 
	C339.118622,85.271294 338.587006,85.079781 337.881897,84.662560 
z"/>
<path fill="#F2F6F9" opacity="1.000000" stroke="none" 
	d="
M282.611237,182.269806 
	C282.791046,182.699524 282.726044,183.379272 282.433594,184.324005 
	C282.259583,183.899277 282.312988,183.209564 282.611237,182.269806 
z"/>
<path fill="#576AA6" opacity="1.000000" stroke="none" 
	d="
M244.652893,227.831924 
	C245.290451,227.383652 245.716675,227.722565 245.951477,228.740814 
	C245.571869,228.730850 245.169846,228.400864 244.652893,227.831924 
z"/>
<path fill="#576AA6" opacity="1.000000" stroke="none" 
	d="
M199.640427,179.816406 
	C200.283234,179.372437 200.711731,179.705719 200.948013,180.716171 
	C200.561630,180.710526 200.152283,180.387329 199.640427,179.816406 
z"/>
<path fill="#F2F6F9" opacity="1.000000" stroke="none" 
	d="
M283.557281,177.264328 
	C283.718964,177.663513 283.654114,178.298355 283.377045,179.181641 
	C283.220123,178.786713 283.275421,178.143356 283.557281,177.264328 
z"/>
<path fill="#4C5E95" opacity="1.000000" stroke="none" 
	d="
M237.069855,95.627060 
	C237.452545,95.769196 237.596100,95.998871 237.870850,96.613052 
	C238.002045,96.997559 238.000000,97.000000 237.998718,97.001266 
	C237.624924,97.351891 237.181198,97.494530 236.368362,97.257843 
	C236.061020,97.057846 235.890808,96.887459 235.805847,96.802002 
	C236.090851,96.382568 236.460800,96.048584 237.069855,95.627060 
z"/>
<path fill="#576AA6" opacity="1.000000" stroke="none" 
	d="
M227.321716,146.261887 
	C226.710281,146.644928 226.275970,146.315292 226.012863,145.342163 
	C226.389511,145.361252 226.799728,145.690445 227.321716,146.261887 
z"/>
<path fill="#F2F6F9" opacity="1.000000" stroke="none" 
	d="
M316.866119,127.261024 
	C316.881287,126.853836 316.966675,126.691971 317.179443,126.286942 
	C317.899750,126.533096 318.065460,127.077278 317.317810,127.848602 
	C317.055084,127.825157 316.995697,127.665749 316.866119,127.261024 
z"/>
<path fill="#4C5E95" opacity="1.000000" stroke="none" 
	d="
M259.673950,88.033417 
	C259.990875,87.996964 259.986511,88.388504 259.987030,88.584297 
	C259.616730,88.959648 259.245941,89.139206 258.568237,89.357712 
	C258.284637,88.672012 258.664307,88.241661 259.673950,88.033417 
z"/>
<path fill="#F2F6F9" opacity="1.000000" stroke="none" 
	d="
M316.441528,132.732452 
	C316.275024,132.329346 316.336212,131.688339 316.613220,130.797791 
	C316.775787,131.197021 316.722504,131.845779 316.441528,132.732452 
z"/>
<path fill="#576AA6" opacity="1.000000" stroke="none" 
	d="
M215.650146,196.889618 
	C216.286636,196.402466 216.707001,196.739166 216.938507,197.767975 
	C216.563370,197.766769 216.166946,197.443710 215.650146,196.889618 
z"/>
<path fill="#576AA6" opacity="1.000000" stroke="none" 
	d="
M231.649353,213.923904 
	C232.292725,213.433640 232.703094,213.777283 232.917084,214.811813 
	C232.546326,214.808197 232.156876,214.482193 231.649353,213.923904 
z"/>
<path fill="#576AA6" opacity="1.000000" stroke="none" 
	d="
M242.321320,162.305359 
	C241.704910,162.650345 241.271133,162.314835 241.005737,161.357803 
	C241.387909,161.383362 241.807449,161.715836 242.321320,162.305359 
z"/>
<path fill="#576AA6" opacity="1.000000" stroke="none" 
	d="
M240.875275,160.772583 
	C240.448929,160.736267 239.947418,160.442093 239.505890,159.839844 
	C239.977295,159.859436 240.388687,160.187088 240.875275,160.772583 
z"/>
<path fill="#576AA6" opacity="1.000000" stroke="none" 
	d="
M208.358078,126.084198 
	C207.745651,126.590553 207.316772,126.285179 207.055466,125.280426 
	C207.429092,125.261253 207.834793,125.556908 208.358078,126.084198 
z"/>
<path fill="#576AA6" opacity="1.000000" stroke="none" 
	d="
M206.924789,124.722771 
	C206.501770,124.712105 205.968445,124.449066 205.456207,123.866402 
	C205.923035,123.854652 206.368759,124.162529 206.924789,124.722771 
z"/>
<path fill="#576AA6" opacity="1.000000" stroke="none" 
	d="
M238.362900,158.030670 
	C237.743820,158.572006 237.321091,158.265564 237.076508,157.244614 
	C237.453354,157.219574 237.850235,157.513031 238.362900,158.030670 
z"/>
<path fill="#576AA6" opacity="1.000000" stroke="none" 
	d="
M224.351974,143.081207 
	C223.724228,143.578903 223.298904,143.256439 223.061432,142.230804 
	C223.437439,142.224045 223.834564,142.537888 224.351974,143.081207 
z"/>
<path fill="#576AA6" opacity="1.000000" stroke="none" 
	d="
M228.681000,210.761078 
	C228.915466,210.670029 229.221939,210.763626 229.458023,211.125854 
	C229.116791,211.328781 228.905258,211.179184 228.681000,210.761078 
z"/>
<path fill="#576AA6" opacity="1.000000" stroke="none" 
	d="
M230.667755,212.807800 
	C230.898239,212.726395 231.178894,212.800873 231.345810,213.110626 
	C231.007889,213.289520 230.836502,213.162125 230.667755,212.807800 
z"/>
<path fill="#576AA6" opacity="1.000000" stroke="none" 
	d="
M229.692093,211.796234 
	C229.922470,211.699524 230.227554,211.778641 230.460815,212.124283 
	C230.127106,212.332169 229.919724,212.192596 229.692093,211.796234 
z"/>
<path fill="#576AA6" opacity="1.000000" stroke="none" 
	d="
M225.731171,207.632202 
	C225.970139,207.534683 226.290100,207.664093 226.609573,208.075378 
	C226.267746,208.312317 226.002106,208.146271 225.731171,207.632202 
z"/>
<path fill="#576AA6" opacity="1.000000" stroke="none" 
	d="
M227.692596,209.642639 
	C227.938904,209.564911 228.250061,209.699921 228.502380,210.112869 
	C228.140839,210.307159 227.912155,210.128677 227.692596,209.642639 
z"/>
<path fill="#576AA6" opacity="1.000000" stroke="none" 
	d="
M226.724228,208.628204 
	C226.966599,208.535461 227.285873,208.669632 227.592712,209.087723 
	C227.242645,209.317017 226.982925,209.144836 226.724228,208.628204 
z"/>
<path fill="#576AA6" opacity="1.000000" stroke="none" 
	d="
M213.279663,131.417877 
	C213.032776,131.488846 212.724762,131.333084 212.461365,130.896408 
	C212.828339,130.702347 213.065857,130.894211 213.279663,131.417877 
z"/>
<path fill="#576AA6" opacity="1.000000" stroke="none" 
	d="
M209.331848,127.223495 
	C209.097351,127.303085 208.808655,127.215355 208.625488,126.881927 
	C208.969009,126.703606 209.151199,126.843590 209.331848,127.223495 
z"/>
<path fill="#576AA6" opacity="1.000000" stroke="none" 
	d="
M239.779419,222.536163 
	C240.015076,222.445358 240.334412,222.596588 240.681137,223.029205 
	C240.426712,223.133102 240.144913,222.955658 239.779419,222.536163 
z"/>
<path fill="#576AA6" opacity="1.000000" stroke="none" 
	d="
M242.700073,225.708847 
	C242.933502,225.612610 243.248871,225.722122 243.536484,226.109924 
	C243.200546,226.331543 242.958313,226.173676 242.700073,225.708847 
z"/>
<path fill="#576AA6" opacity="1.000000" stroke="none" 
	d="
M243.681793,226.695892 
	C243.921356,226.618698 244.224045,226.734833 244.448669,227.116119 
	C244.095337,227.302124 243.886765,227.138107 243.681793,226.695892 
z"/>
<path fill="#F2F6F9" opacity="1.000000" stroke="none" 
	d="
M253.254059,228.919678 
	C253.079941,228.662613 253.251373,228.392838 253.790573,228.142853 
	C253.928085,228.392654 253.741837,228.640747 253.254059,228.919678 
z"/>
<path fill="#F2F6F9" opacity="1.000000" stroke="none" 
	d="
M252.231094,229.903015 
	C252.009399,229.999817 252.096695,229.552017 252.146790,229.329468 
	C252.196899,229.106918 252.602585,229.044113 252.807800,229.039856 
	C252.916977,229.358429 252.730240,229.615311 252.231094,229.903015 
z"/>
<path fill="#F2F6F9" opacity="1.000000" stroke="none" 
	d="
M251.161682,230.876099 
	C251.116058,230.686035 251.307419,230.411942 251.749115,230.073120 
	C251.799194,230.269592 251.598938,230.530823 251.161682,230.876099 
z"/>
<path fill="#F2F6F9" opacity="1.000000" stroke="none" 
	d="
M250.073975,231.854080 
	C250.026260,231.650299 250.238358,231.369171 250.706802,231.006287 
	C250.753357,231.208588 250.543564,231.492661 250.073975,231.854080 
z"/>
<path fill="#576AA6" opacity="1.000000" stroke="none" 
	d="
M175.700317,125.980568 
	C175.765244,126.196472 175.568390,126.486519 175.115662,126.860550 
	C175.052734,126.647934 175.245636,126.351326 175.700317,125.980568 
z"/>
<path fill="#F2F6F9" opacity="1.000000" stroke="none" 
	d="
M322.662415,119.108162 
	C322.867828,119.170258 322.930573,119.331284 322.929626,119.743584 
	C322.750580,119.732277 322.635162,119.469688 322.662415,119.108162 
z"/>
<path fill="#576AA6" opacity="1.000000" stroke="none" 
	d="
M214.254059,132.408157 
	C214.014664,132.504211 213.694260,132.364456 213.360779,131.942169 
	C213.702148,131.702866 213.977264,131.873764 214.254059,132.408157 
z"/>
<path fill="#576AA6" opacity="1.000000" stroke="none" 
	d="
M229.387573,148.504715 
	C229.147552,148.590240 228.797028,148.419022 228.409943,147.940796 
	C228.674606,147.838516 228.975830,148.043259 229.387573,148.504715 
z"/>
<path fill="#F2F6F9" opacity="1.000000" stroke="none" 
	d="
M288.591187,149.188751 
	C288.761749,149.366608 288.729980,149.778458 288.475525,150.413391 
	C288.298187,150.231888 288.343536,149.827332 288.591187,149.188751 
z"/>
<path fill="#576AA6" opacity="1.000000" stroke="none" 
	d="
M239.346558,159.216614 
	C239.108582,159.293442 238.822800,159.211700 238.662933,158.893845 
	C239.012970,158.722214 239.182922,158.855637 239.346558,159.216614 
z"/>
<path fill="#4C5E95" opacity="1.000000" stroke="none" 
	d="
M238.449081,94.675903 
	C238.510498,94.942062 238.337616,95.261749 237.874420,95.500381 
	C237.693176,95.096924 237.903397,94.866959 238.449081,94.675903 
z"/>
<path fill="#576AA6" opacity="1.000000" stroke="none" 
	d="
M243.279724,163.372620 
	C243.037781,163.458420 242.727524,163.320709 242.441132,162.904617 
	C242.793320,162.687012 243.042114,162.861298 243.279724,163.372620 
z"/>
<path fill="#576AA6" opacity="1.000000" stroke="none" 
	d="
M244.260056,164.423035 
	C244.018524,164.509644 243.707108,164.359970 243.395691,163.930939 
	C243.746826,163.701843 244.011658,163.880234 244.260056,164.423035 
z"/>
<path fill="#576AA6" opacity="1.000000" stroke="none" 
	d="
M245.238663,165.441101 
	C245.002563,165.530716 244.685104,165.382767 244.350449,164.953705 
	C244.607941,164.849579 244.882614,165.026566 245.238663,165.441101 
z"/>
<path fill="#F2F6F9" opacity="1.000000" stroke="none" 
	d="
M315.418396,136.768768 
	C315.258789,136.591080 315.306152,136.205460 315.572205,135.616791 
	C315.735748,135.796112 315.680573,136.178467 315.418396,136.768768 
z"/>
<path fill="#F2F6F9" opacity="1.000000" stroke="none" 
	d="
M283.999390,170.000641 
	C283.876984,169.858673 283.755188,169.716080 283.633392,169.573502 
	C283.719666,169.622559 283.805969,169.671631 283.946716,169.859436 
	C284.001221,169.998169 284.000000,170.000000 283.999390,170.000641 
z"/>
<path fill="#576AA6" opacity="1.000000" stroke="none" 
	d="
M216.224670,134.472839 
	C215.985229,134.561768 215.673431,134.402267 215.331879,133.965851 
	C215.585526,133.867416 215.868927,134.045929 216.224670,134.472839 
z"/>
<path fill="#576AA6" opacity="1.000000" stroke="none" 
	d="
M215.230865,133.450714 
	C214.993347,133.535065 214.680191,133.380096 214.357483,132.944092 
	C214.617020,132.845840 214.886124,133.028610 215.230865,133.450714 
z"/>
<path fill="#576AA6" opacity="1.000000" stroke="none" 
	d="
M173.687500,127.951584 
	C173.772400,128.154297 173.606705,128.455887 173.201508,128.869171 
	C173.120316,128.670731 173.278610,128.360580 173.687500,127.951584 
z"/>
<path fill="#F2F6F9" opacity="1.000000" stroke="none" 
	d="
M266.883087,187.819855 
	C266.691437,187.872055 266.409607,187.689255 266.060791,187.254547 
	C266.260162,187.196701 266.526520,187.390762 266.883087,187.819855 
z"/>
<path fill="#F2F6F9" opacity="1.000000" stroke="none" 
	d="
M267.869446,188.840881 
	C267.672241,188.899231 267.385986,188.714737 267.022369,188.278290 
	C267.223480,188.216904 267.501953,188.407486 267.869446,188.840881 
z"/>
<path fill="#576AA6" opacity="1.000000" stroke="none" 
	d="
M228.288071,147.362961 
	C228.046890,147.440811 227.739044,147.304688 227.478378,146.892426 
	C227.832275,146.696167 228.064209,146.873734 228.288071,147.362961 
z"/>
<path fill="#576AA6" opacity="1.000000" stroke="none" 
	d="
M212.317719,130.282715 
	C212.076477,130.373322 211.762192,130.264938 211.507782,129.879700 
	C211.858688,129.671127 212.084366,129.831421 212.317719,130.282715 
z"/>
<path fill="#576AA6" opacity="1.000000" stroke="none" 
	d="
M211.314819,129.227463 
	C211.079773,129.325394 210.768585,129.236679 210.519058,128.875626 
	C210.859146,128.660233 211.078461,128.806091 211.314819,129.227463 
z"/>
<path fill="#576AA6" opacity="1.000000" stroke="none" 
	d="
M211.738525,192.650940 
	C211.981689,192.573105 212.328369,192.756119 212.705139,193.253128 
	C212.437485,193.348694 212.139771,193.130234 211.738525,192.650940 
z"/>
<path fill="#576AA6" opacity="1.000000" stroke="none" 
	d="
M214.679260,195.793915 
	C214.912430,195.708282 215.204819,195.789185 215.397110,196.120056 
	C215.056412,196.307724 214.870239,196.171188 214.679260,195.793915 
z"/>
<path fill="#F2F6F9" opacity="1.000000" stroke="none" 
	d="
M322.745850,128.087982 
	C322.947388,128.170868 322.992676,128.339203 322.943237,128.751251 
	C322.702179,128.822418 322.536713,128.661209 322.422821,128.469391 
	C322.394012,128.420853 322.529572,128.274704 322.745850,128.087982 
z"/>
<path fill="#576AA6" opacity="1.000000" stroke="none" 
	d="
M210.309082,128.217285 
	C210.078339,128.314194 209.772293,128.228958 209.528152,127.875488 
	C209.861877,127.663750 210.076447,127.806374 210.309082,128.217285 
z"/>
<path fill="#4B629F" opacity="1.000000" stroke="none" 
	d="
M285.054138,193.211426 
	C285.167389,193.453812 284.993561,193.777969 284.566040,194.217804 
	C284.463928,193.986710 284.615540,193.639954 285.054138,193.211426 
z"/>
<path fill="#4B629F" opacity="1.000000" stroke="none" 
	d="
M284.072784,194.353928 
	C284.341644,194.646347 284.224060,194.915878 283.819885,195.260391 
	C283.683777,195.044052 283.734772,194.709259 284.072784,194.353928 
z"/>
<path fill="#3D569F" opacity="1.000000" stroke="none" 
	d="
M236.082260,97.370079 
	C236.490967,97.038483 236.920914,97.019119 237.674149,97.001152 
	C237.996887,97.438461 237.996338,97.874390 237.980011,98.636253 
	C237.075150,98.926422 236.308075,98.713257 236.082260,97.370079 
z"/>
</svg>